<?xml version="1.0" standalone="no"?>
<!DOCTYPE svg PUBLIC "-//W3C//DTD SVG 20010904//EN"
 "http://www.w3.org/TR/2001/REC-SVG-20010904/DTD/svg10.dtd">
<svg version="1.0" xmlns="http://www.w3.org/2000/svg"
 width="1000.000000pt" height="1000.000000pt" viewBox="0 0 1000.000000 1000.000000"
 preserveAspectRatio="xMidYMid meet">

<g transform="translate(0.000000,1000.000000) scale(0.100000,-0.100000)"
fill="#ffffff" stroke="none">
<path d="M2910 8964 c-14 -2 -65 -9 -115 -15 -119 -15 -328 -68 -446 -115
-313 -123 -583 -315 -790 -563 -428 -510 -643 -1265 -599 -2101 59 -1130 503
-2220 1289 -3170 132 -160 461 -486 611 -606 430 -343 840 -551 1323 -669 226
-56 382 -76 641 -82 l230 -6 125 -82 c967 -636 1972 -729 2735 -253 170 106
331 246 457 397 428 510 643 1265 599 2101 -44 839 -302 1666 -753 2415 -293
487 -723 1018 -1052 1302 -480 415 -1072 688 -1700 785 -88 13 -205 21 -364
25 l-235 6 -115 77 c-422 281 -847 455 -1292 530 -118 20 -480 36 -549 24z
m660 -125 c106 -15 292 -62 407 -105 196 -72 475 -216 683 -353 l84 -56 -113
-12 c-682 -71 -1330 -354 -1852 -809 -189 -164 -409 -410 -544 -607 l-54 -79
-8 49 c-4 26 -8 179 -8 338 1 225 5 317 18 410 62 418 185 707 392 924 181
189 381 281 685 315 50 6 221 -3 310 -15z m4214 -6064 c1 -347 -8 -446 -61
-670 -36 -154 -75 -261 -144 -395 -68 -132 -121 -207 -217 -304 -377 -384
-971 -400 -1681 -45 -181 91 -471 264 -478 286 -2 6 37 13 89 17 282 19 680
118 974 241 138 58 365 176 492 255 360 226 717 565 955 907 48 69 52 72 61
51 5 -13 10 -166 10 -343z"/>
</g>
</svg>
